HIERARCHY
ROOT Hips
{
	OFFSET 0.000000 83.214638 0.000000
	CHANNELS 6 Xposition Yposition Zposition Xrotation Yrotation Zrotation
	JOINT Pelvis
	{
		OFFSET 0.000000 0.000000 0.000000
		CHANNELS 3 Xrotation Yrotation Zrotation
		JOINT LeftUpLeg
		{
			OFFSET 8.479700 -4.795502 -0.379100
			CHANNELS 3 Xrotation Yrotation Zrotation
			JOINT LeftLeg
			{
				OFFSET 0.024144 -32.555107 0.112900
				CHANNELS 3 Xrotation Yrotation Zrotation
				JOINT LeftFoot
				{
					OFFSET -0.024144 -32.638630 -3.012600
					CHANNELS 3 Xrotation Yrotation Zrotation
					JOINT LeftToeBase
					{
						OFFSET 0.970200 -13.225400 11.864200
						CHANNELS 3 Xrotation Yrotation Zrotation
						End Site
						{
							OFFSET 0.000000 12.319262 0.000000
						}
					}
					JOINT LFootTongue
					{
						OFFSET 1.142400 -1.059800 6.665200
						CHANNELS 3 Xrotation Yrotation Zrotation
						End Site
						{
							OFFSET 0.000000 12.319262 0.000000
						}
					}
				}
				JOINT LeftPantLeg
				{
					OFFSET 0.918482 -16.533964 -2.284700
					CHANNELS 3 Xrotation Yrotation Zrotation
					End Site
					{
						OFFSET 0.350399 24.744368 0.000000
					}
				}
			}
		}
		JOINT RightUpLeg
		{
			OFFSET -8.479700 -4.795502 -0.379100
			CHANNELS 3 Xrotation Yrotation Zrotation
			JOINT RightLeg
			{
				OFFSET -0.023144 -32.555092 0.112900
				CHANNELS 3 Xrotation Yrotation Zrotation
				JOINT RightFoot
				{
					OFFSET 0.023144 -32.638641 -3.012700
					CHANNELS 3 Xrotation Yrotation Zrotation
					JOINT RightToeBase
					{
						OFFSET -0.970200 -13.225400 11.864200
						CHANNELS 3 Xrotation Yrotation Zrotation
						End Site
						{
							OFFSET 0.000000 12.319244 0.000000
						}
					}
					JOINT RFootTongue
					{
						OFFSET -1.142200 -1.059800 6.665200
						CHANNELS 3 Xrotation Yrotation Zrotation
						End Site
						{
							OFFSET 0.000000 12.319243 0.000000
						}
					}
				}
				JOINT RightPantLeg
				{
					OFFSET -0.919482 -16.533978 -2.284800
					CHANNELS 3 Xrotation Yrotation Zrotation
					End Site
					{
						OFFSET -0.350400 24.744419 0.000000
					}
				}
			}
		}
	}
	JOINT Spine
	{
		OFFSET 0.000000 7.722000 1.166200
		CHANNELS 3 Xrotation Yrotation Zrotation
		JOINT Spine1
		{
			OFFSET 0.000000 12.024101 0.248800
			CHANNELS 3 Xrotation Yrotation Zrotation
			JOINT Spine2
			{
				OFFSET 0.000000 11.502998 -0.491200
				CHANNELS 3 Xrotation Yrotation Zrotation
				JOINT Neck
				{
					OFFSET 0.000000 18.430702 -3.123100
					CHANNELS 3 Xrotation Yrotation Zrotation
					JOINT Head
					{
						OFFSET 0.000000 9.051102 1.034000
						CHANNELS 3 Xrotation Yrotation Zrotation
						JOINT HairB
						{
							OFFSET 0.208400 24.786102 24.822300
							CHANNELS 3 Xrotation Yrotation Zrotation
							End Site
							{
								OFFSET 0.000000 32.263779 0.000000
							}
						}
						JOINT HairA
						{
							OFFSET -7.081100 24.428299 23.196600
							CHANNELS 3 Xrotation Yrotation Zrotation
							End Site
							{
								OFFSET 0.000000 32.263779 0.000000
							}
						}
						JOINT Hat
						{
							OFFSET 16.728800 15.048294 -15.439601
							CHANNELS 3 Xrotation Yrotation Zrotation
							End Site
							{
								OFFSET 0.000000 32.263779 0.000000
							}
						}
					}
				}
				JOINT LeftShoulder
				{
					OFFSET 6.197800 13.665199 -4.064700
					CHANNELS 3 Xrotation Yrotation Zrotation
					JOINT LeftArm
					{
						OFFSET 7.778100 -0.187103 -1.709300
						CHANNELS 3 Xrotation Yrotation Zrotation
						JOINT LeftForeArm
						{
							OFFSET 22.049376 0.000000 0.000000
							CHANNELS 3 Xrotation Yrotation Zrotation
							JOINT LeftHand
							{
								OFFSET 23.009392 0.000000 0.000000
								CHANNELS 3 Xrotation Yrotation Zrotation
								JOINT LeftHandThumb1
								{
									OFFSET 3.507191 -2.063065 3.133727
									CHANNELS 3 Xrotation Yrotation Zrotation
									JOINT LeftHandThumb2
									{
										OFFSET 3.101337 -1.790558 1.790558
										CHANNELS 3 Xrotation Yrotation Zrotation
										JOINT LeftHandThumb3
										{
											OFFSET 3.058640 -1.765907 1.765906
											CHANNELS 3 Xrotation Yrotation Zrotation
											End Site
											{
												OFFSET -0.415260 3.926476 -0.049563
											}
										}
									}
								}
								JOINT LeftHandIndex1
								{
									OFFSET 11.334419 -0.901459 3.706815
									CHANNELS 3 Xrotation Yrotation Zrotation
									JOINT LeftHandIndex2
									{
										OFFSET 3.283112 0.000000 0.000000
										CHANNELS 3 Xrotation Yrotation Zrotation
										JOINT LeftHandIndex3
										{
											OFFSET 3.323853 0.000000 0.000000
											CHANNELS 3 Xrotation Yrotation Zrotation
											End Site
											{
												OFFSET -1.135597 3.097809 0.402452
											}
										}
									}
								}
								JOINT LeftHandMiddle1
								{
									OFFSET 11.335861 0.000000 0.000000
									CHANNELS 3 Xrotation Yrotation Zrotation
									JOINT LeftHandMiddle2
									{
										OFFSET 3.410492 0.000000 0.000000
										CHANNELS 3 Xrotation Yrotation Zrotation
										JOINT LeftHandMiddle3
										{
											OFFSET 3.312172 0.000000 0.000000
											CHANNELS 3 Xrotation Yrotation Zrotation
											End Site
											{
												OFFSET -1.150200 3.080154 0.400270
											}
										}
									}
								}
								JOINT LeftHandRing1
								{
									OFFSET 11.514786 -0.013176 -3.003090
									CHANNELS 3 Xrotation Yrotation Zrotation
									JOINT LeftHandRing2
									{
										OFFSET 3.053307 0.000000 0.000000
										CHANNELS 3 Xrotation Yrotation Zrotation
										JOINT LeftHandRing3
										{
											OFFSET 3.295807 0.000000 0.000000
											CHANNELS 3 Xrotation Yrotation Zrotation
											End Site
											{
												OFFSET -1.281006 3.013344 0.375733
											}
										}
									}
								}
								JOINT LeftHandPinky1
								{
									OFFSET 10.518692 -0.960396 -5.730441
									CHANNELS 3 Xrotation Yrotation Zrotation
									JOINT LeftHandPinky2
									{
										OFFSET 2.861649 0.000000 0.000000
										CHANNELS 3 Xrotation Yrotation Zrotation
										JOINT LeftHandPinky3
										{
											OFFSET 2.863380 0.000000 0.000000
											CHANNELS 3 Xrotation Yrotation Zrotation
											End Site
											{
												OFFSET -0.843597 2.711159 0.369971
											}
										}
									}
								}
							}
							JOINT LSleeve
							{
								OFFSET 6.676277 -0.344902 -1.011730
								CHANNELS 3 Xrotation Yrotation Zrotation
								End Site
								{
									OFFSET 0.000000 14.885353 0.000000
								}
							}
						}
					}
				}
				JOINT RightShoulder
				{
					OFFSET -6.197800 13.665199 -4.064700
					CHANNELS 3 Xrotation Yrotation Zrotation
					JOINT RightArm
					{
						OFFSET -7.778100 -0.187103 -1.709300
						CHANNELS 3 Xrotation Yrotation Zrotation
						JOINT RightForeArm
						{
							OFFSET -22.049376 0.000000 0.000000
							CHANNELS 3 Xrotation Yrotation Zrotation
							JOINT RightHand
							{
								OFFSET -23.009392 0.000000 0.000000
								CHANNELS 3 Xrotation Yrotation Zrotation
								JOINT RightHandThumb1
								{
									OFFSET -3.507191 -2.063065 3.133727
									CHANNELS 3 Xrotation Yrotation Zrotation
									JOINT RightHandThumb2
									{
										OFFSET -3.101337 -1.790558 1.790558
										CHANNELS 3 Xrotation Yrotation Zrotation
										JOINT RightHandThumb3
										{
											OFFSET -3.058640 -1.765907 1.765906
											CHANNELS 3 Xrotation Yrotation Zrotation
											End Site
											{
												OFFSET 0.415260 3.926476 -0.049563
											}
										}
									}
								}
								JOINT RightHandIndex1
								{
									OFFSET -11.334419 -0.901459 3.706815
									CHANNELS 3 Xrotation Yrotation Zrotation
									JOINT RightHandIndex2
									{
										OFFSET -3.283112 0.000000 0.000000
										CHANNELS 3 Xrotation Yrotation Zrotation
										JOINT RightHandIndex3
										{
											OFFSET -3.323853 0.000000 0.000000
											CHANNELS 3 Xrotation Yrotation Zrotation
											End Site
											{
												OFFSET 1.135597 3.097809 0.402452
											}
										}
									}
								}
								JOINT RightHandMiddle1
								{
									OFFSET -11.335861 0.000000 0.000000
									CHANNELS 3 Xrotation Yrotation Zrotation
									JOINT RightHandMiddle2
									{
										OFFSET -3.410492 0.000000 0.000000
										CHANNELS 3 Xrotation Yrotation Zrotation
										JOINT RightHandMiddle3
										{
											OFFSET -3.312172 0.000000 0.000000
											CHANNELS 3 Xrotation Yrotation Zrotation
											End Site
											{
												OFFSET 1.150200 3.080154 0.400270
											}
										}
									}
								}
								JOINT RightHandRing1
								{
									OFFSET -11.514786 -0.013176 -3.003090
									CHANNELS 3 Xrotation Yrotation Zrotation
									JOINT RightHandRing2
									{
										OFFSET -3.053307 0.000000 0.000000
										CHANNELS 3 Xrotation Yrotation Zrotation
										JOINT RightHandRing3
										{
											OFFSET -3.295807 0.000000 0.000000
											CHANNELS 3 Xrotation Yrotation Zrotation
											End Site
											{
												OFFSET 1.281006 3.013344 0.375733
											}
										}
									}
								}
								JOINT RightHandPinky1
								{
									OFFSET -10.518692 -0.960396 -5.730441
									CHANNELS 3 Xrotation Yrotation Zrotation
									JOINT RightHandPinky2
									{
										OFFSET -2.861649 0.000000 0.000000
										CHANNELS 3 Xrotation Yrotation Zrotation
										JOINT RightHandPinky3
										{
											OFFSET -2.863380 0.000000 0.000000
											CHANNELS 3 Xrotation Yrotation Zrotation
											End Site
											{
												OFFSET 0.843597 2.711159 0.369971
											}
										}
									}
								}
							}
							JOINT RSleeve
							{
								OFFSET -6.676277 -0.344902 -1.011730
								CHANNELS 3 Xrotation Yrotation Zrotation
								End Site
								{
									OFFSET 0.000000 14.885353 0.000000
								}
							}
						}
					}
				}
				JOINT Backpack
				{
					OFFSET 0.000000 -2.471497 36.677502
					CHANNELS 3 Xrotation Yrotation Zrotation
					End Site
					{
						OFFSET 0.000000 20.427315 0.000000
					}
				}
				JOINT Hood
				{
					OFFSET 0.000000 18.754097 -10.431000
					CHANNELS 3 Xrotation Yrotation Zrotation
					JOINT Hood1
					{
						OFFSET 0.000000 -5.011002 -7.685901
						CHANNELS 3 Xrotation Yrotation Zrotation
						End Site
						{
							OFFSET 0.000000 9.175140 0.000000
						}
					}
				}
				JOINT LHoodieString
				{
					OFFSET 5.250500 16.397697 3.089900
					CHANNELS 3 Xrotation Yrotation Zrotation
					JOINT LHoodieString1
					{
						OFFSET 0.257700 -6.364304 3.694600
						CHANNELS 3 Xrotation Yrotation Zrotation
						JOINT LHoodieString2
						{
							OFFSET 0.000000 -9.643799 2.679100
							CHANNELS 3 Xrotation Yrotation Zrotation
							End Site
							{
								OFFSET 0.000000 10.009018 0.000000
							}
						}
					}
				}
				JOINT RHoodieString
				{
					OFFSET -5.250500 16.397697 3.089900
					CHANNELS 3 Xrotation Yrotation Zrotation
					JOINT RHoodieString1
					{
						OFFSET -0.257700 -6.364304 3.694600
						CHANNELS 3 Xrotation Yrotation Zrotation
						JOINT RHoodieString2
						{
							OFFSET 0.000000 -9.643799 2.679100
							CHANNELS 3 Xrotation Yrotation Zrotation
							End Site
							{
								OFFSET 0.000000 10.009018 0.000000
							}
						}
					}
				}
			}
			JOINT LBackpack_Strap
			{
				OFFSET 15.223200 -7.719803 -6.610900
				CHANNELS 3 Xrotation Yrotation Zrotation
				End Site
				{
					OFFSET 0.000000 16.040596 0.000000
				}
			}
			JOINT RBackpack_Strap
			{
				OFFSET -15.223000 -7.719803 -6.610900
				CHANNELS 3 Xrotation Yrotation Zrotation
				End Site
				{
					OFFSET 0.000000 16.040596 0.000000
				}
			}
		}
	}
	JOINT BoyFacialAnim_Joint
	{
		OFFSET 1.000000 -82.208099 -1.550900
		CHANNELS 3 Xrotation Yrotation Zrotation
		End Site
		{
			OFFSET 0.000000 30.012791 0.000000
		}
	}
}
MOTION
Frames: 4
Frame Time: 0.033333
-5.351651 72.312988 -8.301694 -4.037736 -33.877619 0.473225 -0.000000 0.000001 0.000000 -36.625988 4.608014 17.492297 49.277581 -8.842599 8.874749 -7.754319 -13.731731 -19.377296 -0.000000 0.000002 -0.000000 -0.000000 0.000002 -0.000000 -0.000001 0.000000 -0.000001 -5.967748 -16.221062 -24.754270 44.104222 -8.018978 -0.376150 -29.102736 -8.443549 24.388391 -0.000000 0.000002 0.000000 -0.000000 0.000002 0.000000 -0.000001 -0.000001 0.000000 9.155867 6.806885 0.323232 1.497531 0.927979 -0.801251 1.507543 0.911687 -0.798514 6.265832 1.839470 -4.379315 14.202149 3.098146 -5.053013 0.000002 0.000001 -0.000000 0.000002 0.000001 -0.000000 0.000002 0.000001 -0.000000 1.972946 2.210987 -9.518891 -25.573560 -20.651490 -64.992433 -0.000062 -116.882828 -0.000059 25.219236 2.262823 6.244784 7.848542 10.285184 -7.819781 19.113543 25.088864 -4.277924 -0.000003 0.000000 -0.000001 4.948248 6.605408 -73.648653 8.165017 6.760949 -100.777802 -0.000002 0.000001 -0.000005 4.594221 6.492088 -71.068460 8.420074 6.707711 -102.952760 0.000001 0.000000 0.000000 5.064718 6.638292 -74.926458 7.796330 6.820367 -97.660729 0.000001 0.000000 -0.000004 5.967039 6.846543 -77.445616 5.595027 2.674006 -79.236096 0.000001 0.000000 -0.000002 0.000000 -0.000003 0.000004 2.709309 13.303184 -6.264632 -37.757463 34.761039 76.153324 0.000043 111.023748 -0.000027 -5.823852 15.155736 -17.754833 6.801442 -10.900321 7.985615 19.141694 -27.885321 3.998678 0.000002 0.000003 0.000001 5.720067 -6.839358 79.794354 8.318733 -6.812392 101.403031 -0.000002 -0.000003 0.000003 5.760457 -6.846654 80.562033 8.164435 -6.841474 100.105076 0.000001 -0.000000 0.000001 5.204729 -6.727306 75.997623 7.669985 -6.910825 95.976985 0.000000 -0.000001 -0.000003 4.789313 -6.605859 71.856131 6.550522 -6.936909 86.710460 -0.000001 -0.000003 -0.000000 -0.000002 -0.000002 -0.000000 0.000000 0.000002 -0.000000 0.000000 0.000002 -0.000000 0.000000 0.000002 -0.000000 0.000000 0.000002 -0.000000 0.000000 0.000002 -0.000001 0.000000 -0.000000 -0.000000 0.000000 0.000002 -0.000000 0.000000 0.000002 -0.000001 0.000000 -0.000000 -0.000000 -0.000000 -0.000000 0.000000 -0.000000 -0.000000 0.000000 -0.000000 0.000001 0.000000 
-5.428461 72.297958 -8.098136 -4.865662 -34.247385 0.070743 0.000000 0.000002 -0.000000 -36.275671 4.918757 17.861209 49.778876 -8.815988 8.757697 -7.271333 -14.518656 -19.092119 -0.000000 -0.000002 0.000001 -0.000000 -0.000002 0.000000 0.000001 -0.000003 0.000001 -5.461738 -16.772498 -25.365564 43.949354 -7.810818 -0.379778 -29.179056 -7.660249 24.362265 0.000000 -0.000000 -0.000000 0.000000 -0.000000 -0.000000 -0.000001 0.000003 -0.000004 9.156352 6.743325 0.888155 1.727799 0.918275 -0.873311 1.739207 0.898848 -0.867938 6.466491 1.920065 -4.466504 14.567279 3.611470 -5.781874 -0.000000 -0.000001 0.000000 -0.000000 -0.000001 0.000000 -0.000000 -0.000001 0.000000 1.849076 3.035436 -9.459991 -24.585220 -20.207757 -65.130389 -0.000037 -114.712522 -0.000030 25.952113 2.704198 4.731164 7.848546 10.285187 -7.819779 19.113547 25.088863 -4.277925 0.000002 -0.000004 0.000002 4.948251 6.605409 -73.648659 8.165012 6.760952 -100.777795 -0.000001 0.000000 -0.000000 4.594222 6.492089 -71.068467 8.420070 6.707714 -102.952760 -0.000003 0.000000 0.000002 5.064722 6.638293 -74.926465 7.796331 6.820372 -97.660729 0.000000 -0.000003 -0.000001 5.967041 6.846548 -77.445616 5.595027 2.674003 -79.236096 0.000001 0.000002 -0.000002 0.000002 0.000003 0.000000 3.025405 13.577511 -5.934573 -35.567684 35.011078 76.209202 0.000132 109.601901 -0.000139 -5.781001 15.020564 -17.011138 6.801445 -10.900326 7.985621 19.141694 -27.885315 3.998675 0.000003 0.000001 0.000001 5.720067 -6.839360 79.794348 8.318729 -6.812393 101.403031 0.000001 0.000001 0.000002 5.760456 -6.846655 80.562040 8.164431 -6.841472 100.105076 0.000001 0.000001 0.000000 5.204730 -6.727306 75.997623 7.669987 -6.910824 95.976992 -0.000000 -0.000002 0.000000 4.789312 -6.605858 71.856138 6.550519 -6.936910 86.710460 -0.000001 -0.000001 0.000002 -0.000002 0.000000 0.000002 -0.000000 0.000002 -0.000000 -0.000000 0.000002 -0.000000 -0.000000 0.000002 -0.000000 -0.000000 0.000002 -0.000000 -0.000000 0.000002 -0.000000 -0.000000 0.000002 -0.000000 -0.000000 0.000002 -0.000000 -0.000000 0.000002 -0.000000 -0.000000 0.000002 -0.000000 0.000000 0.000001 -0.000000 0.000000 0.000001 -0.000000 0.000000 0.000002 -0.000000 
-5.372722 72.748848 -7.585788 -5.275983 -34.812040 -0.389387 -0.000000 -0.000001 -0.000000 -36.061384 5.343676 18.328374 49.786830 -8.587552 8.425115 -5.332392 -15.763713 -18.160621 0.000000 -0.000002 0.000001 0.000000 -0.000002 0.000001 0.000000 -0.000002 0.000001 -4.910772 -16.979531 -24.926972 43.081900 -8.173890 -0.701242 -28.762497 -6.984358 22.114505 -0.000000 0.000000 -0.000000 -0.000000 0.000000 -0.000000 0.000002 0.000002 -0.000000 8.732185 6.620806 1.355974 1.977393 0.898930 -0.809709 1.988110 0.880014 -0.801050 6.918210 1.986854 -4.560965 15.109352 4.159716 -6.551991 0.000002 -0.000002 0.000001 0.000002 -0.000002 0.000001 0.000002 -0.000002 0.000001 1.744835 3.451662 -9.336638 -24.555572 -19.611790 -64.291901 0.000035 -114.336117 0.000039 26.095103 3.430004 3.377307 7.848548 10.285181 -7.819783 19.113552 25.088859 -4.277923 -0.000002 0.000003 -0.000001 4.948249 6.605404 -73.648659 8.165016 6.760949 -100.777802 -0.000001 -0.000001 -0.000002 4.594225 6.492088 -71.068467 8.420072 6.707713 -102.952753 -0.000002 -0.000001 0.000004 5.064722 6.638289 -74.926458 7.796330 6.820369 -97.660729 -0.000004 -0.000001 -0.000001 5.967041 6.846544 -77.445609 5.595025 2.674005 -79.236102 0.000000 0.000001 -0.000000 -0.000000 0.000001 0.000000 3.647163 14.267242 -5.337273 -35.124613 34.703266 75.651448 0.000147 108.801956 -0.000134 -6.284060 14.401604 -16.713920 6.801444 -10.900322 7.985617 19.141694 -27.885321 3.998676 0.000003 -0.000000 0.000001 5.720068 -6.839363 79.794354 8.318734 -6.812394 101.403031 -0.000000 0.000001 0.000004 5.760458 -6.846658 80.562033 8.164429 -6.841473 100.105076 0.000002 0.000000 -0.000002 5.204730 -6.727306 75.997623 7.669986 -6.910824 95.976985 -0.000001 -0.000001 0.000004 4.789314 -6.605861 71.856138 6.550519 -6.936910 86.710467 -0.000001 0.000003 -0.000001 0.000000 -0.000003 -0.000000 -0.000000 0.000001 -0.000000 -0.000000 0.000001 -0.000000 -0.000000 0.000001 -0.000000 -0.000000 0.000001 -0.000000 -0.000000 0.000001 -0.000000 -0.000000 0.000001 -0.000000 -0.000000 0.000001 -0.000000 -0.000000 0.000001 -0.000000 -0.000000 0.000001 -0.000000 0.000000 -0.000002 0.000000 0.000000 -0.000002 0.000000 -0.000000 -0.000001 -0.000000 
-5.143703 73.581451 -6.883040 -5.121304 -35.586484 -0.528964 -0.000001 -0.000002 -0.000000 -35.850290 5.764753 18.402924 49.120583 -8.547776 7.921823 -2.162513 -16.465107 -16.752846 -0.000000 -0.000000 -0.000000 -0.000000 -0.000000 0.000000 0.000000 -0.000002 0.000003 -4.576627 -16.872422 -24.196751 41.215984 -9.373190 -1.326104 -26.831201 -6.003439 20.073590 0.000000 0.000001 -0.000000 0.000000 0.000001 -0.000000 0.000001 -0.000000 0.000001 7.988814 6.549401 1.519808 2.143060 0.886026 -0.648111 2.151650 0.870489 -0.636716 7.536543 1.996621 -4.668481 15.851648 4.425939 -7.171886 0.000002 0.000001 -0.000000 0.000002 0.000001 -0.000000 0.000002 0.000001 -0.000000 1.700539 3.383146 -9.220840 -25.375674 -18.833418 -63.082739 -0.000003 -115.868559 0.000002 25.369037 4.035223 3.011688 7.848546 10.285184 -7.819780 19.113545 25.088863 -4.277925 -0.000000 -0.000001 -0.000001 4.948253 6.605403 -73.648659 8.165016 6.760951 -100.777795 -0.000001 -0.000001 -0.000000 4.594226 6.492088 -71.068460 8.420075 6.707714 -102.952760 -0.000000 0.000001 0.000000 5.064722 6.638288 -74.926465 7.796328 6.820367 -97.660729 -0.000004 0.000001 -0.000000 5.967044 6.846542 -77.445609 5.595027 2.674005 -79.236096 0.000002 0.000001 -0.000004 -0.000001 -0.000003 0.000002 4.233183 14.962532 -4.799301 -36.186544 34.044818 74.836327 0.000048 108.965969 -0.000042 -7.360705 13.669069 -17.030126 6.801443 -10.900320 7.985616 19.141692 -27.885315 3.998677 0.000001 -0.000001 0.000001 5.720067 -6.839362 79.794354 8.318731 -6.812394 101.403031 0.000000 0.000003 0.000002 5.760458 -6.846652 80.562033 8.164432 -6.841472 100.105069 0.000001 -0.000001 -0.000000 5.204731 -6.727304 75.997623 7.669990 -6.910826 95.976992 0.000002 0.000002 0.000004 4.789313 -6.605855 71.856138 6.550522 -6.936909 86.710460 0.000000 -0.000001 0.000004 0.000000 -0.000001 -0.000001 -0.000000 0.000000 -0.000000 -0.000000 0.000000 -0.000000 -0.000000 0.000000 -0.000000 -0.000000 0.000000 -0.000000 -0.000000 0.000000 0.000000 -0.000000 0.000000 0.000000 -0.000000 0.000000 -0.000000 -0.000000 0.000000 0.000000 -0.000000 0.000000 0.000000 0.000000 0.000001 -0.000000 0.000000 0.000001 -0.000000 -0.000001 -0.000002 -0.000000 
